<?xml version="1.0" standalone="no"?>
<!DOCTYPE svg PUBLIC "-//W3C//DTD SVG 20010904//EN"
 "http://www.w3.org/TR/2001/REC-SVG-20010904/DTD/svg10.dtd">
<svg version="1.0" xmlns="http://www.w3.org/2000/svg"
 width="200.000000pt" height="200.000000pt" viewBox="0 0 200.000000 200.000000"
 preserveAspectRatio="xMidYMid meet">
<metadata>
Created by potrace 1.16, written by Peter Selinger 2001-2019
</metadata>
<g transform="translate(0.000000,200.000000) scale(0.100000,-0.100000)"
fill="#000000" stroke="none">
<path d="M1799 1927 c-143 -119 -451 -501 -818 -1015 -68 -95 -125 -171 -126
-170 -2 2 -65 102 -140 223 -75 121 -138 222 -140 223 -4 4 -244 -138 -250
-148 -2 -4 93 -156 211 -339 l216 -331 103 0 102 0 44 63 c91 130 430 577 536
707 132 162 307 356 334 370 18 10 19 23 19 240 0 183 -3 230 -13 230 -7 0
-42 -24 -78 -53z"/>
<path d="M233 1676 c-89 -28 -147 -81 -189 -171 l-24 -50 0 -601 c0 -689 -3
-662 85 -750 88 -88 60 -85 761 -82 l609 3 48 25 c55 28 106 79 139 142 23 42
23 50 26 405 l3 363 -60 0 -60 0 -3 -337 c-3 -384 -4 -390 -87 -448 l-43 -30
-571 -3 -572 -2 -44 22 c-25 13 -59 40 -75 61 l-31 39 0 587 0 587 28 42 c15
23 46 52 70 64 42 23 43 23 555 26 l512 3 0 59 0 60 -517 -1 c-397 0 -528 -3
-560 -13z"/>
</g>
</svg>
